<svg width="79" height="90" viewBox="0 0 79 90" fill="none" xmlns="http://www.w3.org/2000/svg">
<g clip-path="url(#clip0_165_319)">
<path d="M78.0904 17.8154L71.0329 82.508L39.3085 89.7043L7.67169 82.518L0.621399 17.8154H78.0904Z" fill="#E44D26"/>
<path d="M39.3558 84.2034L64.9906 78.3884L71.0214 23.1055H39.3558V84.2034Z" fill="#F16529"/>
<path d="M25.636 38.9765H39.3558V31.041H15.0371L15.2691 33.1699L17.6529 55.0381H39.3558V47.1026H26.5225L25.636 38.9765ZM27.8219 59.006H18.0862L19.4449 71.4659L39.3111 75.9782L39.3558 75.9683V67.712L39.3133 67.7212L28.5124 65.3349L27.8219 59.006Z" fill="#EBEBEB"/>
<path d="M7.82892 0.231445H12.7574V4.21572H17.266V0.231445H22.1948V12.2968H17.2663V8.25665H12.7578V12.2968H7.82922L7.82892 0.231445ZM28.6757 4.23262H24.3375V0.231445H37.9461V4.23262H33.6052V12.2968H28.6766V4.23262H28.6757ZM40.1058 0.231445H45.2447L48.4059 4.4709L51.5641 0.231445H56.7052V12.2968H51.7967V6.31657L48.4059 10.6065H48.3209L44.928 6.31657V12.2968H40.1058V0.231445ZM59.1579 0.231445H64.0879V8.30883H71.0189V12.2968H59.1576V0.231445H59.1579Z" fill="black"/>
<path d="M39.3225 55.0381H51.2649L50.1389 65.3299L39.3222 67.7187V75.9745L59.2043 71.4659L59.35 70.1252L61.6294 49.2335L61.8659 47.1026H39.3225V55.0381ZM39.3225 38.9571V38.9765H62.7484L62.9427 37.193L63.3849 33.1699L63.6166 31.041H39.3225V38.9571Z" fill="white"/>
</g>
<defs>
<clipPath id="clip0_165_319">
<rect width="77.7391" height="89.699" fill="white" transform="translate(0.486267 0.231445)"/>
</clipPath>
</defs>
</svg>
