<svg width="79" height="90" viewBox="0 0 79 90" fill="none" xmlns="http://www.w3.org/2000/svg">
<g clip-path="url(#clip0_165_356)">
<path d="M78.3787 17.8154L71.3211 82.508L39.5968 89.7043L7.95996 82.518L0.909668 17.8154H78.3787Z" fill="#E44D26"/>
<path d="M39.6441 84.2034L65.2789 78.3884L71.3097 23.1055H39.6441V84.2034Z" fill="#F16529"/>
<path d="M25.9243 38.9765H39.6441V31.041H15.3254L15.5574 33.1699L17.9412 55.0381H39.6441V47.1026H26.8108L25.9243 38.9765ZM28.1102 59.006H18.3745L19.7332 71.4659L39.5994 75.9782L39.6441 75.9683V67.712L39.6016 67.7212L28.8007 65.3349L28.1102 59.006Z" fill="#EBEBEB"/>
<path d="M8.11722 0.231445H13.0457V4.21572H17.5543V0.231445H22.4831V12.2968H17.5546V8.25665H13.0461V12.2968H8.11752L8.11722 0.231445ZM28.964 4.23262H24.6258V0.231445H38.2344V4.23262H33.8935V12.2968H28.9649V4.23262H28.964ZM40.3941 0.231445H45.533L48.6942 4.4709L51.8524 0.231445H56.9935V12.2968H52.085V6.31657L48.6942 10.6065H48.6092L45.2163 6.31657V12.2968H40.3941V0.231445ZM59.4462 0.231445H64.3762V8.30883H71.3072V12.2968H59.4459V0.231445H59.4462Z" fill="black"/>
<path d="M39.6108 55.0381H51.5531L50.4271 65.3299L39.6105 67.7187V75.9745L59.4925 71.4659L59.6383 70.1252L61.9176 49.2335L62.1542 47.1026H39.6108V55.0381ZM39.6108 38.9571V38.9765H63.0367L63.231 37.193L63.6731 33.1699L63.9048 31.041H39.6108V38.9571Z" fill="white"/>
</g>
<defs>
<clipPath id="clip0_165_356">
<rect width="77.7391" height="89.699" fill="white" transform="translate(0.774536 0.231445)"/>
</clipPath>
</defs>
</svg>
