<svg width="91" height="91" viewBox="0 0 91 91" fill="none" xmlns="http://www.w3.org/2000/svg">
<g clip-path="url(#clip0_165_359)">
<path d="M44.9084 0.708984C22.1921 0.708984 23.6105 10.5987 23.6105 10.5987L23.6357 20.8448H45.3134V23.921H15.0256C15.0256 23.921 0.489502 22.2659 0.489502 45.2764C0.489502 68.2875 13.177 67.4714 13.177 67.4714H20.7489V56.7934C20.7489 56.7934 20.3407 44.0561 33.2338 44.0561H54.7343C54.7343 44.0561 66.8138 44.252 66.8138 32.3358V12.633C66.8138 12.633 68.6485 0.708984 44.9084 0.708984ZM32.9553 7.59927C33.4675 7.59881 33.9749 7.69976 34.4482 7.89635C34.9216 8.09294 35.3517 8.3813 35.7139 8.74495C36.0761 9.10859 36.3633 9.54037 36.5592 10.0156C36.755 10.4908 36.8555 11.0001 36.8551 11.5144C36.8555 12.0286 36.755 12.538 36.5592 13.0132C36.3633 13.4884 36.0761 13.9202 35.7139 14.2838C35.3517 14.6474 34.9216 14.9358 34.4482 15.1324C33.9749 15.329 33.4675 15.4299 32.9553 15.4295C32.443 15.4299 31.9357 15.329 31.4623 15.1324C30.989 14.9358 30.5589 14.6474 30.1967 14.2838C29.8345 13.9202 29.5472 13.4884 29.3514 13.0132C29.1556 12.538 29.055 12.0286 29.0555 11.5144C29.055 11.0001 29.1556 10.4908 29.3514 10.0156C29.5472 9.54037 29.8345 9.10859 30.1967 8.74495C30.5589 8.3813 30.989 8.09294 31.4623 7.89635C31.9357 7.69976 32.443 7.59881 32.9553 7.59927Z" fill="url(#paint0_linear_165_359)"/>
<path d="M45.5534 90.0756C68.2697 90.0756 66.8513 80.1858 66.8513 80.1858L66.8261 69.9401H45.148V66.8639H75.4358C75.4358 66.8639 89.9719 68.519 89.9719 45.5078C89.9719 22.4971 77.2844 23.3132 77.2844 23.3132H69.7126V33.9908C69.7126 33.9908 70.1208 46.7281 57.2276 46.7281H35.7272C35.7272 46.7281 23.6476 46.5322 23.6476 58.4488V78.1519C23.6476 78.1519 21.8133 90.0756 45.5531 90.0756H45.5534ZM57.5065 83.186C56.9943 83.1864 56.4869 83.0855 56.0136 82.8889C55.5402 82.6923 55.1101 82.404 54.7479 82.0403C54.3857 81.6767 54.0985 81.2449 53.9026 80.7697C53.7068 80.2945 53.6063 79.7852 53.6067 79.2709C53.6062 78.7566 53.7067 78.2472 53.9025 77.772C54.0983 77.2967 54.3856 76.8649 54.7478 76.5012C55.11 76.1376 55.5401 75.8492 56.0135 75.6526C56.4869 75.4559 56.9942 75.355 57.5065 75.3554C58.0188 75.355 58.5261 75.4559 58.9995 75.6525C59.4728 75.8491 59.9029 76.1375 60.2651 76.5011C60.6273 76.8648 60.9146 77.2965 61.1104 77.7717C61.3062 78.247 61.4068 78.7563 61.4063 79.2705C61.4068 79.7848 61.3062 80.2941 61.1104 80.7693C60.9146 81.2445 60.6273 81.6763 60.2651 82.04C59.9029 82.4036 59.4728 82.692 58.9995 82.8886C58.5261 83.0851 58.0188 83.1864 57.5065 83.186Z" fill="url(#paint1_linear_165_359)"/>
</g>
<defs>
<linearGradient id="paint0_linear_165_359" x1="860.413" y1="804.505" x2="5312.07" y2="5194.54" gradientUnits="userSpaceOnUse">
<stop stop-color="#387EB8"/>
<stop offset="1" stop-color="#366994"/>
</linearGradient>
<linearGradient id="paint1_linear_165_359" x1="1292.9" y1="1397.29" x2="6072.6" y2="5898.05" gradientUnits="userSpaceOnUse">
<stop stop-color="#FFE052"/>
<stop offset="1" stop-color="#FFC331"/>
</linearGradient>
<clipPath id="clip0_165_359">
<rect width="89.699" height="89.699" fill="white" transform="translate(0.43869 0.683594)"/>
</clipPath>
</defs>
</svg>
