<svg width="90" height="91" viewBox="0 0 90 91" fill="none" xmlns="http://www.w3.org/2000/svg">
<g clip-path="url(#clip0_165_322)">
<path d="M44.62 0.708984C21.9038 0.708984 23.3221 10.5987 23.3221 10.5987L23.3474 20.8448H45.0251V23.921H14.7373C14.7373 23.921 0.201172 22.2659 0.201172 45.2764C0.201172 68.2875 12.8887 67.4714 12.8887 67.4714H20.4605V56.7934C20.4605 56.7934 20.0523 44.0561 32.9455 44.0561H54.4459C54.4459 44.0561 66.5255 44.252 66.5255 32.3358V12.633C66.5255 12.633 68.3601 0.708984 44.62 0.708984ZM32.667 7.59927C33.1792 7.59881 33.6865 7.69976 34.1599 7.89635C34.6332 8.09294 35.0633 8.3813 35.4256 8.74495C35.7878 9.10859 36.075 9.54037 36.2708 10.0156C36.4667 10.4908 36.5672 11.0001 36.5668 11.5144C36.5672 12.0286 36.4667 12.538 36.2708 13.0132C36.075 13.4884 35.7878 13.9202 35.4256 14.2838C35.0633 14.6474 34.6332 14.9358 34.1599 15.1324C33.6865 15.329 33.1792 15.4299 32.667 15.4295C32.1547 15.4299 31.6474 15.329 31.174 15.1324C30.7007 14.9358 30.2706 14.6474 29.9083 14.2838C29.5461 13.9202 29.2589 13.4884 29.0631 13.0132C28.8672 12.538 28.7667 12.0286 28.7671 11.5144C28.7667 11.0001 28.8672 10.4908 29.0631 10.0156C29.2589 9.54037 29.5461 9.10859 29.9083 8.74495C30.2706 8.3813 30.7007 8.09294 31.174 7.89635C31.6474 7.69976 32.1547 7.59881 32.667 7.59927Z" fill="url(#paint0_linear_165_322)"/>
<path d="M45.2651 90.0756C67.9814 90.0756 66.563 80.1858 66.563 80.1858L66.5378 69.9401H44.8597V66.8639H75.1475C75.1475 66.8639 89.6836 68.519 89.6836 45.5078C89.6836 22.4971 76.9961 23.3132 76.9961 23.3132H69.4243V33.9908C69.4243 33.9908 69.8325 46.7281 56.9393 46.7281H35.4389C35.4389 46.7281 23.3593 46.5322 23.3593 58.4488V78.1519C23.3593 78.1519 21.525 90.0756 45.2647 90.0756H45.2651ZM57.2182 83.186C56.7059 83.1864 56.1986 83.0855 55.7253 82.8889C55.2519 82.6923 54.8218 82.404 54.4596 82.0403C54.0974 81.6767 53.8101 81.2449 53.6143 80.7697C53.4185 80.2945 53.3179 79.7852 53.3184 79.2709C53.3179 78.7566 53.4184 78.2472 53.6142 77.772C53.81 77.2967 54.0972 76.8649 54.4595 76.5012C54.8217 76.1376 55.2518 75.8492 55.7252 75.6526C56.1985 75.4559 56.7059 75.355 57.2182 75.3554C57.7305 75.355 58.2378 75.4559 58.7111 75.6525C59.1845 75.8491 59.6146 76.1375 59.9768 76.5011C60.339 76.8648 60.6263 77.2965 60.8221 77.7717C61.0179 78.247 61.1185 78.7563 61.118 79.2705C61.1185 79.7848 61.0179 80.2941 60.8221 80.7693C60.6263 81.2445 60.339 81.6763 59.9768 82.04C59.6146 82.4036 59.1845 82.692 58.7111 82.8886C58.2378 83.0851 57.7305 83.1864 57.2182 83.186Z" fill="url(#paint1_linear_165_322)"/>
</g>
<defs>
<linearGradient id="paint0_linear_165_322" x1="860.125" y1="804.505" x2="5311.78" y2="5194.54" gradientUnits="userSpaceOnUse">
<stop stop-color="#387EB8"/>
<stop offset="1" stop-color="#366994"/>
</linearGradient>
<linearGradient id="paint1_linear_165_322" x1="1292.61" y1="1397.29" x2="6072.31" y2="5898.05" gradientUnits="userSpaceOnUse">
<stop stop-color="#FFE052"/>
<stop offset="1" stop-color="#FFC331"/>
</linearGradient>
<clipPath id="clip0_165_322">
<rect width="89.699" height="89.699" fill="white" transform="translate(0.150391 0.683594)"/>
</clipPath>
</defs>
</svg>
