<svg width="91" height="90" viewBox="0 0 91 90" fill="none" xmlns="http://www.w3.org/2000/svg">
<path fill-rule="evenodd" clip-rule="evenodd" d="M31.1756 85.1883C31.2309 85.9016 31.1959 86.6396 31.3851 87.3165C31.4657 87.6024 32.0158 87.7573 32.3529 87.9717L32.7908 88.2527C32.6262 88.3487 32.4622 88.5253 32.2954 88.5274C30.9878 88.55 29.68 88.5505 28.3725 88.5288C28.1987 88.526 28.0284 88.3628 27.8574 88.2738C27.9961 88.1736 28.1293 87.9998 28.2758 87.9878C29.1524 87.9143 29.4194 87.3817 29.4152 86.594C29.4075 85.1462 29.411 83.697 29.4173 82.2478C29.4208 81.4405 29.1917 80.8512 28.2407 80.8147C28.109 80.8091 27.9842 80.6073 27.8567 80.4973C27.9842 80.4195 28.1132 80.2723 28.2393 80.2744C29.9142 80.2948 31.596 80.2576 33.2618 80.3985C34.5743 80.5099 35.4391 81.4181 35.5281 82.4651C35.6248 83.6136 35.0354 84.402 33.7025 84.9079L33.1917 85.0986C34.0501 85.9101 34.8105 86.7033 35.6556 87.3915C36.0305 87.6977 36.5617 87.8799 37.0494 87.964C38.0256 88.1308 38.5554 87.711 38.582 86.7433C38.6248 85.1813 38.6045 83.6171 38.5897 82.0544C38.5827 81.3382 38.2751 80.8652 37.4762 80.8259C37.3255 80.8189 37.1819 80.6487 37.0354 80.554C37.2029 80.4559 37.3704 80.2737 37.5365 80.2744C39.2408 80.2885 40.9527 80.2359 42.6458 80.3873C45.5351 80.6437 47.1448 83.0481 46.2996 85.7047C45.7846 87.3249 44.5512 88.2408 42.9647 88.3487C40.191 88.538 37.4019 88.4994 34.6192 88.519C34.3977 88.5204 34.1244 88.2801 33.9576 88.0825C33.3171 87.3221 32.713 86.5316 32.088 85.7587C31.8987 85.5246 31.6878 85.3095 31.4867 85.0852L31.1756 85.1883ZM40.369 81.0754C40.369 83.0271 40.3452 84.9185 40.3942 86.8077C40.4019 87.0979 40.6815 87.5359 40.9408 87.6396C41.9619 88.0467 43.6122 87.3817 44.0733 86.3487C44.6907 84.9661 44.7656 83.5106 43.931 82.1988C43.1076 80.9044 41.7362 81.0334 40.369 81.0754ZM31.2442 84.2716C32.1286 84.2941 33.1034 84.491 33.4811 83.5197C33.6927 82.9752 33.6451 82.1308 33.3529 81.6346C32.9093 80.8806 32.0172 81.0124 31.2435 81.1077L31.2442 84.2716Z" fill="#337BA2"/>
<path fill-rule="evenodd" clip-rule="evenodd" d="M68.6761 83.8686C69.2605 83.7425 69.8401 83.7607 70.2164 83.4923C70.5324 83.268 70.6109 82.7102 70.8527 82.1706C70.9921 82.4208 71.1232 82.5483 71.126 82.678C71.1435 83.645 71.147 84.6128 71.126 85.5799C71.1225 85.7312 70.9676 85.8791 70.8828 86.0291C70.7875 85.9492 70.6452 85.8889 70.6032 85.7866C70.0895 84.5455 70.0923 84.5448 68.6109 84.6773C68.8274 85.6458 68.0762 86.884 69.2346 87.521C69.8253 87.8455 70.7784 87.781 71.4693 87.5687C72.0587 87.3893 72.5065 86.7481 73.0195 86.3087V88.4783C72.7356 88.5035 72.5205 88.5385 72.304 88.5385C69.4021 88.5427 66.5002 88.5301 63.599 88.5519C63.0986 88.5561 62.7601 88.4299 62.4546 88.0102C61.854 87.1818 61.1939 86.397 60.545 85.6051C60.3824 85.4068 60.1708 85.2491 59.8295 84.931C59.8295 85.7397 59.8001 86.3192 59.8379 86.8945C59.8772 87.4958 60.1666 87.8945 60.8316 87.9695C61.0271 87.9919 61.2023 88.1973 61.3866 88.3199C61.1967 88.3935 61.0082 88.5287 60.8176 88.5322C59.5373 88.5505 58.2577 88.5498 56.9774 88.5329C56.7811 88.5301 56.5863 88.4117 56.3705 88.3402L56.4798 88.1279C58.0523 87.493 58.0565 87.493 58.0551 85.6696C58.0541 84.5319 58.045 83.3943 58.0278 82.2568C58.0159 81.4712 57.8029 80.8483 56.8442 80.8146C56.7062 80.8097 56.5751 80.6135 56.4399 80.5056C56.5982 80.4264 56.7573 80.2778 56.915 80.2792C58.5345 80.2946 60.1631 80.2414 61.7713 80.3914C63.5317 80.5553 64.62 82.0235 63.9662 83.3745C63.6088 84.1125 62.7833 84.624 62.0566 85.3493C62.7461 85.98 63.5401 86.8868 64.503 87.5462C65.8632 88.4783 66.7931 87.9464 66.8274 86.3213C66.8562 84.9569 66.8225 83.5911 66.8169 82.2253C66.8141 81.4159 66.5639 80.8279 65.6137 80.8146C65.484 80.8125 65.3565 80.6745 65.203 80.5834C65.6971 80.219 70.4581 80.0865 72.5247 80.3507L72.6579 82.603L72.4245 82.6983C71.9438 82.1958 72.0033 81.1573 71.0089 81.1538C70.2493 81.1503 69.4897 81.0704 68.674 81.0214C68.6761 81.9716 68.6761 82.8364 68.6761 83.8686ZM59.8134 84.2652C61.6424 84.3388 62.3684 83.8427 62.325 82.6086C62.2822 81.4187 61.4875 80.9387 59.8134 81.1223V84.2652Z" fill="#515151"/>
<path fill-rule="evenodd" clip-rule="evenodd" d="M8.95955 84.8021C9.65752 82.737 10.3464 80.6697 11.064 78.6115C11.1628 78.3284 11.4046 78.095 11.5804 77.8379C11.7542 78.1027 11.9918 78.3459 12.0913 78.6367C12.7437 80.5421 13.3646 82.4566 13.9988 84.3684C14.0493 84.5218 14.1144 84.6697 14.2616 85.0474C14.9119 83.0761 15.5139 81.3277 16.0584 79.5611C16.2476 78.9493 16.0016 78.5071 15.2896 78.4272C15.0549 78.3999 14.8271 78.3081 14.5531 78.2352C15.0268 77.7103 18.7276 77.6718 19.3373 78.1595C19.1719 78.238 19.0402 78.3494 18.9042 78.355C17.748 78.3999 17.2126 79.1238 16.8832 80.1217C16.0016 82.7916 15.1032 85.4553 14.2083 88.121C14.1151 88.3978 13.9981 88.6662 13.8916 88.9381L13.5966 88.9591L11.0885 81.3761L8.5524 88.936L8.30433 88.9514C8.17469 88.6704 8.01561 88.3978 7.92101 88.1056C7.1032 85.5961 6.29591 83.0831 5.48652 80.5716C5.13964 79.4931 4.79275 78.4209 3.37579 78.3522C3.28329 78.348 3.1985 78.1917 3.1095 78.1069C3.22022 78.0158 3.33094 77.8456 3.44307 77.8442C5.03522 77.8273 6.62878 77.8273 8.22094 77.8449C8.33166 77.8456 8.44028 78.0179 8.5503 78.1105C8.43187 78.1987 8.32676 78.327 8.19431 78.3676C6.9189 78.7531 6.8271 78.9009 7.22864 80.1378C7.7353 81.7026 8.25738 83.2611 8.77315 84.8232L8.95955 84.8021Z" fill="#3179A1"/>
<path fill-rule="evenodd" clip-rule="evenodd" d="M46.7516 78.1927C46.9471 78.0238 47.0564 77.8465 47.1629 77.8487C49.2351 77.8795 51.3241 77.7835 53.3746 78.0217C55.3143 78.2467 56.3886 80.0673 55.8035 81.7772C55.2793 83.3112 53.9864 83.7912 52.5239 83.9244C51.9065 83.9811 51.2793 83.9335 50.5449 83.9335C50.61 84.9517 50.643 85.8816 50.7376 86.8052C50.8168 87.5859 51.3424 87.8984 52.0852 87.9615C52.2527 87.9762 52.4054 88.1633 52.5645 88.2713C52.3893 88.3596 52.2155 88.5235 52.0389 88.5256C50.5035 88.546 48.9667 88.5453 47.4313 88.527C47.247 88.5249 47.0648 88.3736 46.8819 88.2916C47.0347 88.1759 47.1847 87.9671 47.3416 87.9608C48.3669 87.9216 48.7516 87.2853 48.7642 86.3946C48.795 84.2355 48.7922 82.0764 48.7656 79.9173C48.7544 78.9993 48.3108 78.4121 47.3136 78.3714C47.165 78.3658 47.0179 78.2803 46.7516 78.1927ZM50.622 82.8921C52.5014 83.0869 53.2169 82.9075 53.6696 82.0743C54.1237 81.239 54.1251 80.3651 53.5883 79.5754C52.8462 78.4828 51.711 78.8059 50.622 78.7667V82.8921Z" fill="#4D4D4D"/>
<path fill-rule="evenodd" clip-rule="evenodd" d="M22.6394 88.8529C20.9604 88.78 19.5924 88.253 18.5791 86.9979C17.1404 85.2166 17.3591 82.7975 19.0774 81.2572C20.9309 79.5964 23.9954 79.5249 25.898 81.1374C27.186 82.2299 27.7964 83.6132 27.3773 85.3091C26.9043 87.2222 25.5546 88.2467 23.7207 88.712C23.3381 88.808 22.9344 88.8164 22.6394 88.8529ZM25.8237 84.4738L25.6667 84.3707C25.5623 83.8739 25.5014 83.3623 25.3458 82.8816C24.8959 81.5004 23.9541 80.8178 22.5686 80.815C21.1881 80.8122 20.2596 81.4983 19.8083 82.8942C19.4074 84.1353 19.4593 85.3651 20.0767 86.5242C20.9982 88.2537 23.4607 88.5782 24.666 87.04C25.2281 86.3231 25.4481 85.3371 25.8237 84.4738Z" fill="#3279A1"/>
<path fill-rule="evenodd" clip-rule="evenodd" d="M86.8806 80.3419L87.5064 79.7939V82.8605L87.3249 82.9972C87.1785 82.7905 86.976 82.6033 86.894 82.3728C86.4798 81.213 85.587 80.5837 84.5681 80.8893C84.2184 80.9937 83.7979 81.3441 83.7047 81.6671C83.6284 81.9306 83.9045 82.452 84.175 82.63C84.8813 83.0953 85.6683 83.4401 86.4272 83.8234C88.0783 84.6587 88.6683 85.8171 88.1098 87.1423C87.5429 88.4884 85.8232 89.185 84.2822 88.665C83.8575 88.5207 83.4644 88.2838 83.0712 88.0967L82.4707 88.8858L82.2051 88.8045C82.2051 87.7694 82.1988 86.7344 82.2156 85.6994C82.217 85.5991 82.3663 85.5017 82.4469 85.4029C82.573 85.5557 82.7608 85.6902 82.8162 85.8654C83.1827 87.0259 83.8883 87.7968 85.1462 87.9257C85.8631 87.9993 86.5639 87.911 86.8127 87.0939C87.0397 86.3462 86.5183 85.9243 85.9584 85.6055C85.3424 85.2551 84.6914 84.9685 84.0607 84.6454C83.7839 84.5031 83.5015 84.3623 83.2527 84.1794C82.3719 83.5298 82.0243 82.5935 82.285 81.644C82.5176 80.7954 83.3523 80.0764 84.3852 80.0462C85.1497 80.0245 85.9234 80.2214 86.8806 80.3419ZM75.4798 88.0694C75.3634 88.3006 75.299 88.4947 75.1791 88.6447C75.107 88.7344 74.9297 88.8199 74.8358 88.7905C74.7468 88.7624 74.6522 88.5844 74.65 88.4709C74.6353 87.5606 74.6353 86.6496 74.6507 85.7407C74.6522 85.6293 74.7755 85.5207 74.8428 85.4106C74.9717 85.4926 75.1553 85.5459 75.2191 85.6643C75.3375 85.8844 75.3648 86.1521 75.4686 86.3819C75.9367 87.4205 76.8848 88.0701 77.9724 87.9124C78.4272 87.8472 78.9885 87.5018 79.2142 87.1149C79.5183 86.5957 79.1539 86.061 78.6438 85.7659C77.9577 85.3693 77.2471 85.0126 76.5351 84.665C74.9255 83.8795 74.2464 82.5823 74.8231 81.3581C75.3964 80.1408 77.1567 79.6342 78.6276 80.2677C78.807 80.3447 78.9773 80.4429 79.1182 80.5157L79.8736 79.8949C79.9528 80.117 80.0033 80.1934 80.004 80.2698C80.0096 81.1219 80.0075 81.9733 80.0075 82.8248L79.7853 82.9734C79.6375 82.7841 79.4321 82.6167 79.3515 82.4029C78.95 81.3293 78.3144 80.7344 77.3824 80.8479C76.9451 80.9005 76.388 81.2011 76.1728 81.5613C75.8575 82.0904 76.313 82.515 76.793 82.7729C77.4679 83.1366 78.1588 83.4681 78.8435 83.8122C80.5379 84.6622 81.1343 85.843 80.5492 87.1927C79.9794 88.5074 78.2044 89.1878 76.683 88.6482C76.2878 88.5088 75.9213 88.2838 75.4798 88.0694Z" fill="#505050"/>
<path fill-rule="evenodd" clip-rule="evenodd" d="M46.5954 1.20952C27.828 0.874554 12.1468 16.1031 12.1418 34.5698C12.1362 53.5678 27.0949 68.7248 45.8329 68.6968C64.3964 68.6695 79.4224 53.5692 79.4224 34.9427C79.4217 16.6188 64.4644 1.52838 46.5954 1.20952ZM45.7909 67.003C28.0431 67.0072 13.7697 52.6169 13.7704 34.7205C13.7711 17.2853 28.2659 2.84933 45.7776 2.84303C63.5996 2.83742 77.7994 17.3168 77.7938 35.49C77.7882 52.647 63.2128 66.9995 45.7909 67.003ZM62.8862 25.4142C62.1897 24.2664 61.3333 23.1528 60.9395 21.9013C60.491 20.4773 60.1189 18.8564 60.3565 17.4289C60.7601 15.0085 62.6164 13.8066 65.1301 13.5768C51.3781 0.813587 29.7677 5.38193 21.8048 19.2495C24.87 19.1073 27.7964 18.9216 30.725 18.8823C31.2793 18.8746 32.1966 19.3427 32.3269 19.7772C32.6184 20.7478 31.8027 21.0863 30.9352 21.1528C30.0235 21.2243 29.1104 21.2923 28.0515 21.3729L38.5176 52.5531C38.7691 52.1417 38.8728 52.0261 38.9184 51.8909C40.8539 46.106 42.8007 40.3246 44.6872 34.5229C44.8596 33.9938 44.7741 33.293 44.5848 32.7492C43.5869 29.8684 42.3914 27.0498 41.5162 24.1339C40.917 22.1374 40.123 20.8459 37.7635 21.0771C37.3613 21.1164 36.8714 20.2516 36.4208 19.8045C36.9653 19.4801 37.5056 18.8823 38.055 18.8739C42.8602 18.8003 47.6662 18.8017 52.4714 18.8781C53.0222 18.8872 53.5625 19.5011 54.1077 19.834C53.6304 20.2699 53.2198 20.923 52.662 21.0912C51.7678 21.361 50.7762 21.3098 49.7061 21.4051L60.1848 52.5783C61.7727 47.3057 63.2499 42.4634 64.6851 37.6098C65.9675 33.2776 65.2037 29.2306 62.8862 25.4142ZM37.8063 62.0044C37.7418 62.1915 37.7383 62.399 37.6885 62.7101C43.6157 64.3527 49.4265 64.2343 55.3761 62.2301L46.2884 37.3386C43.3795 45.7927 40.5904 53.8979 37.8063 62.0044ZM33.2267 60.879L19.535 23.3203C13.3584 35.3855 18.0571 53.7942 33.2267 60.879ZM71.3852 22.054C71.196 24.1521 71.3278 26.4878 70.7258 28.6147C69.3081 33.6266 67.5751 38.5523 65.9066 43.4914C64.093 48.8593 62.2065 54.2034 60.3515 59.558C69.0671 54.3919 73.8561 46.7668 74.6186 36.7443C75.0531 31.04 73.0853 23.1409 71.3852 22.054Z" fill="#494949"/>
</svg>
